<svg width="1200" height="628" viewBox="0 0 1200 628" fill="none" xmlns="http://www.w3.org/2000/svg">
  <!-- Background -->
  <rect width="1200" height="628" fill="#FEE2E2"/>
  
  <!-- Header text -->
  <text x="600" y="100" font-family="Arial, sans-serif" font-size="64" font-weight="bold" text-anchor="middle" fill="#991B1B">
    SeeFood Hot Dog Detector
  </text>
  
  <!-- Not hot dog image -->
  <g transform="translate(500, 250) scale(1.5)">
    <!-- Hot dog base -->
    <path d="M98.42,53c-10-29.19-74.56-16.84-93.84,5.08c-17.6,20-4.11,36.63,13.14,44.37c38.65,17.36,90.7-20.26,80.7-49.44Z" fill="#FF7A59"/>
    <path d="M91.25,59.39c-3.11-13.81-43.11-17.5-67.5-3.89c-14.67,8.18-12.61,19.37-3.53,26.85c20.29,16.73,74.14-9.16,71.03-22.96Z" fill="#FFC4A8"/>
    <path d="M5,58c-7.02,8.08,84.47,33.89,92.47,9.89c4-12-84.47-18.97-92.47-9.89Z" fill="#FFE168"/>
    
    <!-- X overlay -->
    <g transform="translate(-10, -10)">
      <circle cx="100" cy="80" r="70" fill="#FF3B30" opacity="0.2"/>
      <path d="M65,45 L135,115 M135,45 L65,115" stroke="#FF3B30" stroke-width="8" stroke-linecap="round"/>
    </g>
  </g>
  
  <!-- Result text -->
  <text x="600" y="450" font-family="Arial, sans-serif" font-size="96" font-weight="bold" text-anchor="middle" fill="#DC2626">
    NOT HOT DOG!
  </text>
  
  <!-- Website URL -->
  <text x="600" y="550" font-family="Arial, sans-serif" font-size="32" font-weight="normal" text-anchor="middle" fill="#4B5563">
    hotdogdetector.com
  </text>
</svg>
