<svg xmlns="http://www.w3.org/2000/svg" viewBox="0 0 512 512" fill="none">
  <path d="M430 170C430 146.8 411.2 128 388 128H124C100.8 128 82 146.8 82 170V192C82 215.2 100.8 234 124 234H388C411.2 234 430 215.2 430 192V170Z" fill="#F9A825"/>
  <path d="M430 170C430 146.8 411.2 128 388 128H124C100.8 128 82 146.8 82 170V192C82 215.2 100.8 234 124 234H388C411.2 234 430 215.2 430 192V170Z" fill="#F9A825"/>
  <path d="M82 192C82 168.8 100.8, 150 124 150H388C411.2 150 430 168.8 430 192V214C430 237.2 411.2 256 388 256H124C100.8 256 82 237.2 82 214V192Z" fill="#F44336"/>
  <path d="M430 214C430 190.8 411.2 172 388 172H124C100.8 172 82 190.8 82 214V236C82 259.2 100.8 278 124 278H388C411.2 278 430 259.2 430 236V214Z" fill="#F9A825"/>
  <path d="M430.1 236C430.1 212.8 411.3 194 388.1 194H124.1C100.9 194 82.1 212.8 82.1 236V258C82.1 281.2 100.9 300 124.1 300H388.1C411.3 300 430.1 281.2 430.1 258V236Z" fill="#FDD835"/>
  <line x1="100" y1="100" x2="412" y2="412" stroke="#FF0000" stroke-width="24" stroke-linecap="round"/>
  <line x1="412" y1="100" x2="100" y2="412" stroke="#FF0000" stroke-width="24" stroke-linecap="round"/>
</svg> 